<?xml version="1.0" encoding="UTF-8" standalone="no"?>
<!DOCTYPE svg PUBLIC "-//W3C//DTD SVG 1.1//EN" "http://www.w3.org/Graphics/SVG/1.1/DTD/svg11.dtd">
<svg xmlns="http://www.w3.org/2000/svg" version="1.1" viewBox="0.00 0.00 1024.00 1024.00">
<g stroke-width="2.00" fill="none" stroke-linecap="butt">
<path stroke="#8395a1" vector-effect="non-scaling-stroke" d="
  M 431.65 247.11
  C 433.34 243.46 439.60 241.76 443.73 240.67
  Q 452.60 238.34 461.39 235.78
  C 464.28 234.94 468.12 233.16 466.24 229.96
  C 464.69 227.31 456.66 225.47 453.74 224.80
  Q 445.24 222.85 437.03 219.90
  C 432.44 218.25 431.16 214.11 429.70 209.37
  Q 426.97 200.45 424.17 191.57
  Q 423.01 187.87 419.71 187.39
  A 1.18 1.16 -61.6 0 0 418.73 187.69
  Q 416.97 189.35 416.52 191.01
  Q 413.27 203.01 409.74 213.01
  C 408.08 217.68 406.76 219.53 401.77 220.84
  Q 390.24 223.86 378.78 227.11
  C 377.02 227.60 374.93 228.01 374.03 229.71
  C 372.26 233.06 375.42 235.28 378.24 236.04
  Q 389.69 239.16 401.17 242.26
  C 405.42 243.41 407.81 244.86 409.45 248.75
  Q 413.10 257.36 416.01 266.25
  C 418.66 274.33 423.47 270.18 425.05 264.77
  Q 427.69 255.69 431.65 247.11"
/>
<path stroke="#8395a1" vector-effect="non-scaling-stroke" d="
  M 627.08 243.83
  Q 630.53 242.29 632.49 241.75
  Q 644.26 238.53 656.02 235.27
  C 659.87 234.21 661.56 229.62 657.07 227.89
  C 648.95 224.75 640.35 223.26 632.07 220.61
  C 627.22 219.07 625.14 217.66 623.54 212.99
  Q 619.33 200.68 617.72 194.75
  C 616.94 191.88 615.12 186.53 611.71 187.56
  C 610.31 187.99 609.12 190.20 608.81 191.31
  C 606.37 199.97 604.29 208.60 600.40 216.76
  Q 599.93 217.74 599.29 218.45
  Q 598.23 219.62 597.70 219.77
  Q 584.38 223.64 571.01 227.31
  C 569.41 227.75 567.56 228.18 566.88 229.85
  C 565.65 232.85 567.83 234.98 570.49 235.77
  Q 578.03 238.02 594.46 242.45
  C 600.84 244.17 602.98 249.00 605.14 255.21
  Q 607.12 260.93 609.08 266.66
  C 611.26 273.05 615.85 270.02 617.23 265.52
  C 618.51 261.34 622.75 245.77 627.08 243.83"
/>
<path stroke="#ea998e" vector-effect="non-scaling-stroke" d="
  M 487.86 275.69
  Q 485.32 276.20 482.75 276.38
  Q 461.58 277.87 440.49 280.14
  Q 436.60 280.55 432.85 281.59
  C 426.79 283.27 426.36 289.96 430.20 294.03
  Q 433.25 297.25 436.57 300.17
  Q 452.69 314.34 469.90 329.07
  A 3.12 3.10 28.8 0 1 470.86 332.35
  Q 466.50 346.72 462.15 361.98
  C 460.30 368.46 455.57 383.78 458.99 388.46
  C 463.62 394.76 471.60 389.75 477.24 386.25
  Q 496.43 374.34 515.84 362.87
  A 2.79 2.78 -44.5 0 1 518.72 362.89
  Q 540.07 375.86 561.84 388.65
  C 565.86 391.01 570.27 392.90 573.91 390.17
  C 580.14 385.50 576.61 376.47 574.37 369.21
  Q 568.95 351.66 563.29 334.16
  C 562.15 330.62 562.92 329.23 565.55 327.05
  Q 578.01 316.75 601.34 295.59
  C 608.73 288.89 607.57 281.32 597.05 280.08
  Q 572.34 277.18 547.50 275.68
  Q 545.09 275.53 544.11 273.08
  Q 537.05 255.25 524.88 226.55
  Q 522.84 221.75 520.59 220.16
  C 515.96 216.91 510.92 220.78 509.12 225.28
  Q 499.87 248.33 490.66 271.40
  Q 489.75 273.67 488.70 275.14
  Q 488.39 275.58 487.86 275.69"
/>
<path stroke="#8395a1" vector-effect="non-scaling-stroke" d="
  M 404.18 421.64
  Q 403.94 420.84 403.94 419.75
  Q 403.73 365.40 403.78 311.05
  C 403.78 307.88 401.60 306.31 399.06 304.21
  Q 378.62 287.28 358.36 270.13
  Q 356.60 268.64 354.47 268.64
  A 1.99 1.98 -81.6 0 0 352.59 270.04
  Q 351.88 272.38 351.89 275.00
  Q 351.94 350.38 351.91 425.75
  Q 351.91 428.70 351.94 431.21
  A 2.51 2.50 -68.9 0 0 352.72 432.98
  Q 360.03 439.82 367.81 446.22
  C 395.10 468.65 423.34 490.43 449.26 514.44
  A 2.19 2.18 -21.6 0 0 450.61 515.02
  C 474.91 516.46 496.71 531.04 509.55 551.43
  Q 514.09 558.63 518.55 565.71
  A 0.54 0.53 -35.5 0 0 519.34 565.84
  L 681.44 433.33
  A 2.75 2.74 70.1 0 0 682.44 431.19
  C 681.89 377.47 682.32 323.72 682.12 270.00
  C 682.10 267.19 679.47 265.92 677.42 267.68
  Q 655.65 286.31 633.33 304.29
  Q 629.86 307.08 629.87 312.25
  Q 629.99 365.12 630.32 418.00
  Q 630.34 420.85 627.91 423.15
  C 611.08 439.12 597.78 451.82 582.03 465.13
  Q 544.36 496.94 523.31 515.31
  C 518.65 519.37 515.21 520.51 510.06 516.18
  C 474.24 486.05 438.85 455.68 405.15 423.24
  A 3.61 3.60 13.8 0 1 404.18 421.64"
/>
<path stroke="#8395a1" vector-effect="non-scaling-stroke" d="
  M 330.19 443.33
  C 327.89 441.48 325.09 439.49 325.10 436.25
  Q 325.24 385.13 325.12 334.00
  Q 325.12 330.45 322.09 328.16
  Q 307.63 317.19 286.32 300.17
  C 284.33 298.57 281.90 296.50 279.32 297.61
  Q 277.02 298.59 276.97 301.75
  Q 275.94 367.87 275.50 434.00
  Q 275.47 437.89 275.52 441.85
  Q 275.53 442.35 275.83 442.75
  Q 277.50 444.91 279.06 446.20
  C 293.17 457.76 314.09 474.42 332.72 489.81
  Q 364.04 515.69 396.23 540.39
  Q 396.60 540.67 396.89 540.32
  Q 404.55 531.38 414.75 525.47
  C 416.76 524.31 418.72 522.79 421.38 522.17
  A 0.88 0.88 0.0 0 0 421.79 520.68
  C 413.32 512.49 404.31 505.04 395.33 497.39
  Q 363.13 469.92 330.19 443.33"
/>
<path stroke="#8395a1" vector-effect="non-scaling-stroke" d="
  M 493.36 556.16
  C 482.44 542.44 466.41 533.38 448.73 533.34
  C 416.69 533.28 394.09 559.16 391.60 589.77
  Q 390.52 602.91 390.34 618.33
  C 390.30 621.87 395.12 624.72 397.66 626.57
  Q 426.92 647.92 456.25 669.27
  Q 456.73 669.62 457.23 669.29
  Q 459.37 667.86 463.24 664.99
  Q 490.80 644.52 518.22 623.87
  C 529.32 615.51 537.33 610.51 549.66 608.07
  A 4.49 4.43 18.0 0 0 551.78 607.01
  Q 555.68 603.55 560.06 600.07
  C 624.93 548.55 688.43 495.35 753.46 444.03
  A 2.24 2.24 0.0 0 0 754.30 442.26
  Q 753.80 372.12 753.07 302.50
  C 753.03 298.90 749.82 296.87 746.81 299.31
  Q 735.09 308.84 706.47 332.53
  C 702.88 335.51 702.78 338.30 702.84 343.00
  Q 703.43 391.75 704.57 440.49
  Q 704.64 443.60 702.13 445.63
  C 656.84 482.21 611.92 519.22 566.94 556.20
  Q 548.60 571.28 530.59 586.75
  C 524.87 591.66 519.53 597.01 513.88 587.89
  C 507.26 577.20 501.20 566.00 493.36 556.16"
/>
<path stroke="#8395a1" vector-effect="non-scaling-stroke" d="
  M 382.56 562.41
  Q 383.05 561.17 383.37 559.84
  Q 383.49 559.37 383.13 559.05
  Q 378.77 555.15 377.41 554.10
  C 340.77 525.61 304.57 496.67 268.40 467.60
  Q 260.65 461.38 253.12 454.85
  Q 250.70 452.75 250.67 448.75
  Q 250.55 432.16 250.41 415.56
  C 250.37 410.51 250.62 407.95 246.95 405.06
  Q 239.01 398.80 211.05 376.45
  C 208.45 374.37 205.47 375.64 205.39 378.98
  Q 204.54 415.30 204.63 460.00
  C 204.63 462.90 210.19 466.48 212.38 468.13
  C 251.27 497.56 289.82 527.33 329.35 555.93
  Q 351.60 572.03 374.01 588.38
  Q 374.94 589.06 375.06 587.92
  C 376.00 579.40 379.44 570.36 382.56 562.41"
/>
<path stroke="#8395a1" vector-effect="non-scaling-stroke" d="
  M 777.34 450.25
  C 777.35 453.28 775.94 454.38 773.69 456.18
  C 751.22 474.19 725.87 495.25 700.19 515.98
  Q 660.25 548.21 620.47 580.64
  C 610.14 589.07 597.19 599.02 585.84 608.58
  Q 585.69 608.70 585.63 608.85
  A 0.39 0.39 0.0 0 0 585.92 609.40
  L 624.17 616.67
  A 1.94 1.94 0.0 0 0 625.72 616.29
  L 819.36 463.85
  A 3.11 3.10 70.7 0 0 820.54 461.39
  L 819.96 378.68
  A 2.50 2.49 -20.0 0 0 815.87 376.78
  Q 799.39 390.50 782.46 404.72
  C 780.90 406.03 777.43 409.06 777.40 411.75
  Q 777.28 421.47 777.34 450.25"
/>
<path stroke="#8395a1" vector-effect="non-scaling-stroke" d="
  M 499.91 472.69
  C 506.10 475.01 508.69 480.38 511.80 485.71
  C 512.89 487.58 515.68 491.32 518.27 489.78
  C 521.47 487.87 524.26 481.34 526.23 478.10
  C 530.08 471.76 538.39 470.11 546.76 467.04
  Q 551.55 465.29 552.64 463.86
  C 555.37 460.25 550.42 458.05 548.02 457.49
  Q 540.79 455.81 533.75 453.48
  C 528.41 451.71 527.76 448.75 527.02 443.76
  Q 524.00 423.38 520.94 403.01
  C 519.67 394.51 511.82 394.12 510.71 402.99
  Q 507.96 424.99 505.33 447.01
  C 505.13 448.66 504.45 452.19 502.14 452.92
  Q 494.23 455.41 482.73 458.50
  Q 479.02 459.50 479.85 463.72
  Q 479.94 464.19 480.29 464.51
  Q 482.22 466.28 485.01 467.22
  Q 488.66 468.46 499.91 472.69"
/>
<path stroke="#8395a1" vector-effect="non-scaling-stroke" d="
  M 644.95 755.75
  C 657.91 759.32 670.50 766.20 681.86 773.86
  Q 712.32 794.40 742.83 814.85
  C 746.23 817.13 748.50 814.98 748.50 811.40
  Q 748.43 721.20 748.48 631.00
  Q 748.48 626.25 748.76 621.55
  A 1.72 1.72 0.0 0 0 747.06 619.73
  Q 745.42 619.72 744.13 620.64
  C 718.74 638.71 695.87 655.26 661.25 647.04
  Q 646.38 643.51 597.00 632.52
  C 580.75 628.90 567.56 626.68 551.81 631.23
  C 543.88 633.51 536.80 639.18 530.26 644.04
  Q 494.35 670.67 458.63 697.57
  C 455.49 699.93 453.22 698.07 450.30 695.98
  Q 419.20 673.74 387.78 651.96
  C 374.85 643.00 368.45 628.22 367.45 612.89
  C 367.28 610.18 366.88 609.67 364.84 608.16
  Q 315.42 571.71 265.49 535.96
  C 245.01 521.30 224.90 505.93 204.83 490.70
  Q 203.61 489.78 202.19 488.97
  A 0.49 0.48 -75.1 0 0 201.47 489.39
  Q 201.46 505.37 201.71 521.50
  C 201.84 529.61 205.92 533.36 211.93 537.80
  Q 239.69 558.33 267.42 578.90
  C 269.58 580.51 270.76 581.91 271.74 584.24
  Q 284.35 614.12 297.04 643.95
  C 300.55 652.22 305.15 660.61 312.13 666.04
  Q 315.59 668.73 318.08 670.42
  C 376.46 709.87 446.42 756.05 510.36 799.11
  Q 512.98 800.88 515.25 802.25
  A 2.42 2.40 -46.5 0 0 517.87 802.17
  C 531.23 792.96 543.97 782.85 557.34 773.61
  C 584.29 754.99 612.99 746.94 644.95 755.75"
/>
<path stroke="#8395a1" vector-effect="non-scaling-stroke" d="
  M 816.84 537.31
  C 821.98 533.32 823.89 527.34 823.75 521.00
  Q 823.41 505.62 823.34 490.25
  Q 823.34 489.99 823.30 489.80
  A 0.75 0.75 0.0 0 0 822.10 489.38
  L 658.11 619.23
  A 0.53 0.53 0.0 0 0 658.35 620.16
  C 678.18 623.50 695.10 623.16 713.15 613.64
  C 728.51 605.53 738.42 598.24 753.37 586.61
  Q 785.08 561.93 816.84 537.31"
/>
<path stroke="#ea998e" vector-effect="non-scaling-stroke" d="
  M 516.89 274.77
  L 505.97 295.99
  A 4.77 4.26 7.1 0 1 502.59 298.33
  L 480.30 301.88
  A 0.81 0.80 64.6 0 0 479.83 303.21
  Q 487.57 311.89 495.95 320.29
  C 497.25 321.59 497.88 323.06 497.49 325.01
  Q 495.27 336.00 493.04 346.92
  A 0.36 0.36 0.0 0 0 493.56 347.31
  Q 503.46 342.11 513.50 336.77
  Q 515.59 335.66 517.35 335.21
  Q 517.85 335.09 518.31 335.33
  L 540.65 347.04
  A 0.48 0.48 0.0 0 0 541.34 346.50
  Q 538.58 335.76 536.25 324.65
  Q 535.76 322.34 537.16 320.93
  Q 546.37 311.63 555.48 302.40
  A 0.40 0.40 0.0 0 0 555.26 301.73
  Q 543.89 299.90 532.46 298.46
  C 530.05 298.16 528.84 297.22 527.77 295.20
  Q 522.38 284.99 516.98 274.77
  A 0.05 0.05 0.0 0 0 516.89 274.77"
/>
</g>
<path fill="#fcfefe" d="
  M 0.00 0.00
  L 1024.00 0.00
  L 1024.00 1024.00
  L 0.00 1024.00
  L 0.00 0.00
  Z
  M 431.65 247.11
  C 433.34 243.46 439.60 241.76 443.73 240.67
  Q 452.60 238.34 461.39 235.78
  C 464.28 234.94 468.12 233.16 466.24 229.96
  C 464.69 227.31 456.66 225.47 453.74 224.80
  Q 445.24 222.85 437.03 219.90
  C 432.44 218.25 431.16 214.11 429.70 209.37
  Q 426.97 200.45 424.17 191.57
  Q 423.01 187.87 419.71 187.39
  A 1.18 1.16 -61.6 0 0 418.73 187.69
  Q 416.97 189.35 416.52 191.01
  Q 413.27 203.01 409.74 213.01
  C 408.08 217.68 406.76 219.53 401.77 220.84
  Q 390.24 223.86 378.78 227.11
  C 377.02 227.60 374.93 228.01 374.03 229.71
  C 372.26 233.06 375.42 235.28 378.24 236.04
  Q 389.69 239.16 401.17 242.26
  C 405.42 243.41 407.81 244.86 409.45 248.75
  Q 413.10 257.36 416.01 266.25
  C 418.66 274.33 423.47 270.18 425.05 264.77
  Q 427.69 255.69 431.65 247.11
  Z
  M 627.08 243.83
  Q 630.53 242.29 632.49 241.75
  Q 644.26 238.53 656.02 235.27
  C 659.87 234.21 661.56 229.62 657.07 227.89
  C 648.95 224.75 640.35 223.26 632.07 220.61
  C 627.22 219.07 625.14 217.66 623.54 212.99
  Q 619.33 200.68 617.72 194.75
  C 616.94 191.88 615.12 186.53 611.71 187.56
  C 610.31 187.99 609.12 190.20 608.81 191.31
  C 606.37 199.97 604.29 208.60 600.40 216.76
  Q 599.93 217.74 599.29 218.45
  Q 598.23 219.62 597.70 219.77
  Q 584.38 223.64 571.01 227.31
  C 569.41 227.75 567.56 228.18 566.88 229.85
  C 565.65 232.85 567.83 234.98 570.49 235.77
  Q 578.03 238.02 594.46 242.45
  C 600.84 244.17 602.98 249.00 605.14 255.21
  Q 607.12 260.93 609.08 266.66
  C 611.26 273.05 615.85 270.02 617.23 265.52
  C 618.51 261.34 622.75 245.77 627.08 243.83
  Z
  M 487.86 275.69
  Q 485.32 276.20 482.75 276.38
  Q 461.58 277.87 440.49 280.14
  Q 436.60 280.55 432.85 281.59
  C 426.79 283.27 426.36 289.96 430.20 294.03
  Q 433.25 297.25 436.57 300.17
  Q 452.69 314.34 469.90 329.07
  A 3.12 3.10 28.8 0 1 470.86 332.35
  Q 466.50 346.72 462.15 361.98
  C 460.30 368.46 455.57 383.78 458.99 388.46
  C 463.62 394.76 471.60 389.75 477.24 386.25
  Q 496.43 374.34 515.84 362.87
  A 2.79 2.78 -44.5 0 1 518.72 362.89
  Q 540.07 375.86 561.84 388.65
  C 565.86 391.01 570.27 392.90 573.91 390.17
  C 580.14 385.50 576.61 376.47 574.37 369.21
  Q 568.95 351.66 563.29 334.16
  C 562.15 330.62 562.92 329.23 565.55 327.05
  Q 578.01 316.75 601.34 295.59
  C 608.73 288.89 607.57 281.32 597.05 280.08
  Q 572.34 277.18 547.50 275.68
  Q 545.09 275.53 544.11 273.08
  Q 537.05 255.25 524.88 226.55
  Q 522.84 221.75 520.59 220.16
  C 515.96 216.91 510.92 220.78 509.12 225.28
  Q 499.87 248.33 490.66 271.40
  Q 489.75 273.67 488.70 275.14
  Q 488.39 275.58 487.86 275.69
  Z
  M 404.18 421.64
  Q 403.94 420.84 403.94 419.75
  Q 403.73 365.40 403.78 311.05
  C 403.78 307.88 401.60 306.31 399.06 304.21
  Q 378.62 287.28 358.36 270.13
  Q 356.60 268.64 354.47 268.64
  A 1.99 1.98 -81.6 0 0 352.59 270.04
  Q 351.88 272.38 351.89 275.00
  Q 351.94 350.38 351.91 425.75
  Q 351.91 428.70 351.94 431.21
  A 2.51 2.50 -68.9 0 0 352.72 432.98
  Q 360.03 439.82 367.81 446.22
  C 395.10 468.65 423.34 490.43 449.26 514.44
  A 2.19 2.18 -21.6 0 0 450.61 515.02
  C 474.91 516.46 496.71 531.04 509.55 551.43
  Q 514.09 558.63 518.55 565.71
  A 0.54 0.53 -35.5 0 0 519.34 565.84
  L 681.44 433.33
  A 2.75 2.74 70.1 0 0 682.44 431.19
  C 681.89 377.47 682.32 323.72 682.12 270.00
  C 682.10 267.19 679.47 265.92 677.42 267.68
  Q 655.65 286.31 633.33 304.29
  Q 629.86 307.08 629.87 312.25
  Q 629.99 365.12 630.32 418.00
  Q 630.34 420.85 627.91 423.15
  C 611.08 439.12 597.78 451.82 582.03 465.13
  Q 544.36 496.94 523.31 515.31
  C 518.65 519.37 515.21 520.51 510.06 516.18
  C 474.24 486.05 438.85 455.68 405.15 423.24
  A 3.61 3.60 13.8 0 1 404.18 421.64
  Z
  M 330.19 443.33
  C 327.89 441.48 325.09 439.49 325.10 436.25
  Q 325.24 385.13 325.12 334.00
  Q 325.12 330.45 322.09 328.16
  Q 307.63 317.19 286.32 300.17
  C 284.33 298.57 281.90 296.50 279.32 297.61
  Q 277.02 298.59 276.97 301.75
  Q 275.94 367.87 275.50 434.00
  Q 275.47 437.89 275.52 441.85
  Q 275.53 442.35 275.83 442.75
  Q 277.50 444.91 279.06 446.20
  C 293.17 457.76 314.09 474.42 332.72 489.81
  Q 364.04 515.69 396.23 540.39
  Q 396.60 540.67 396.89 540.32
  Q 404.55 531.38 414.75 525.47
  C 416.76 524.31 418.72 522.79 421.38 522.17
  A 0.88 0.88 0.0 0 0 421.79 520.68
  C 413.32 512.49 404.31 505.04 395.33 497.39
  Q 363.13 469.92 330.19 443.33
  Z
  M 493.36 556.16
  C 482.44 542.44 466.41 533.38 448.73 533.34
  C 416.69 533.28 394.09 559.16 391.60 589.77
  Q 390.52 602.91 390.34 618.33
  C 390.30 621.87 395.12 624.72 397.66 626.57
  Q 426.92 647.92 456.25 669.27
  Q 456.73 669.62 457.23 669.29
  Q 459.37 667.86 463.24 664.99
  Q 490.80 644.52 518.22 623.87
  C 529.32 615.51 537.33 610.51 549.66 608.07
  A 4.49 4.43 18.0 0 0 551.78 607.01
  Q 555.68 603.55 560.06 600.07
  C 624.93 548.55 688.43 495.35 753.46 444.03
  A 2.24 2.24 0.0 0 0 754.30 442.26
  Q 753.80 372.12 753.07 302.50
  C 753.03 298.90 749.82 296.87 746.81 299.31
  Q 735.09 308.84 706.47 332.53
  C 702.88 335.51 702.78 338.30 702.84 343.00
  Q 703.43 391.75 704.57 440.49
  Q 704.64 443.60 702.13 445.63
  C 656.84 482.21 611.92 519.22 566.94 556.20
  Q 548.60 571.28 530.59 586.75
  C 524.87 591.66 519.53 597.01 513.88 587.89
  C 507.26 577.20 501.20 566.00 493.36 556.16
  Z
  M 382.56 562.41
  Q 383.05 561.17 383.37 559.84
  Q 383.49 559.37 383.13 559.05
  Q 378.77 555.15 377.41 554.10
  C 340.77 525.61 304.57 496.67 268.40 467.60
  Q 260.65 461.38 253.12 454.85
  Q 250.70 452.75 250.67 448.75
  Q 250.55 432.16 250.41 415.56
  C 250.37 410.51 250.62 407.95 246.95 405.06
  Q 239.01 398.80 211.05 376.45
  C 208.45 374.37 205.47 375.64 205.39 378.98
  Q 204.54 415.30 204.63 460.00
  C 204.63 462.90 210.19 466.48 212.38 468.13
  C 251.27 497.56 289.82 527.33 329.35 555.93
  Q 351.60 572.03 374.01 588.38
  Q 374.94 589.06 375.06 587.92
  C 376.00 579.40 379.44 570.36 382.56 562.41
  Z
  M 777.34 450.25
  C 777.35 453.28 775.94 454.38 773.69 456.18
  C 751.22 474.19 725.87 495.25 700.19 515.98
  Q 660.25 548.21 620.47 580.64
  C 610.14 589.07 597.19 599.02 585.84 608.58
  Q 585.69 608.70 585.63 608.85
  A 0.39 0.39 0.0 0 0 585.92 609.40
  L 624.17 616.67
  A 1.94 1.94 0.0 0 0 625.72 616.29
  L 819.36 463.85
  A 3.11 3.10 70.7 0 0 820.54 461.39
  L 819.96 378.68
  A 2.50 2.49 -20.0 0 0 815.87 376.78
  Q 799.39 390.50 782.46 404.72
  C 780.90 406.03 777.43 409.06 777.40 411.75
  Q 777.28 421.47 777.34 450.25
  Z
  M 499.91 472.69
  C 506.10 475.01 508.69 480.38 511.80 485.71
  C 512.89 487.58 515.68 491.32 518.27 489.78
  C 521.47 487.87 524.26 481.34 526.23 478.10
  C 530.08 471.76 538.39 470.11 546.76 467.04
  Q 551.55 465.29 552.64 463.86
  C 555.37 460.25 550.42 458.05 548.02 457.49
  Q 540.79 455.81 533.75 453.48
  C 528.41 451.71 527.76 448.75 527.02 443.76
  Q 524.00 423.38 520.94 403.01
  C 519.67 394.51 511.82 394.12 510.71 402.99
  Q 507.96 424.99 505.33 447.01
  C 505.13 448.66 504.45 452.19 502.14 452.92
  Q 494.23 455.41 482.73 458.50
  Q 479.02 459.50 479.85 463.72
  Q 479.94 464.19 480.29 464.51
  Q 482.22 466.28 485.01 467.22
  Q 488.66 468.46 499.91 472.69
  Z
  M 644.95 755.75
  C 657.91 759.32 670.50 766.20 681.86 773.86
  Q 712.32 794.40 742.83 814.85
  C 746.23 817.13 748.50 814.98 748.50 811.40
  Q 748.43 721.20 748.48 631.00
  Q 748.48 626.25 748.76 621.55
  A 1.72 1.72 0.0 0 0 747.06 619.73
  Q 745.42 619.72 744.13 620.64
  C 718.74 638.71 695.87 655.26 661.25 647.04
  Q 646.38 643.51 597.00 632.52
  C 580.75 628.90 567.56 626.68 551.81 631.23
  C 543.88 633.51 536.80 639.18 530.26 644.04
  Q 494.35 670.67 458.63 697.57
  C 455.49 699.93 453.22 698.07 450.30 695.98
  Q 419.20 673.74 387.78 651.96
  C 374.85 643.00 368.45 628.22 367.45 612.89
  C 367.28 610.18 366.88 609.67 364.84 608.16
  Q 315.42 571.71 265.49 535.96
  C 245.01 521.30 224.90 505.93 204.83 490.70
  Q 203.61 489.78 202.19 488.97
  A 0.49 0.48 -75.1 0 0 201.47 489.39
  Q 201.46 505.37 201.71 521.50
  C 201.84 529.61 205.92 533.36 211.93 537.80
  Q 239.69 558.33 267.42 578.90
  C 269.58 580.51 270.76 581.91 271.74 584.24
  Q 284.35 614.12 297.04 643.95
  C 300.55 652.22 305.15 660.61 312.13 666.04
  Q 315.59 668.73 318.08 670.42
  C 376.46 709.87 446.42 756.05 510.36 799.11
  Q 512.98 800.88 515.25 802.25
  A 2.42 2.40 -46.5 0 0 517.87 802.17
  C 531.23 792.96 543.97 782.85 557.34 773.61
  C 584.29 754.99 612.99 746.94 644.95 755.75
  Z
  M 816.84 537.31
  C 821.98 533.32 823.89 527.34 823.75 521.00
  Q 823.41 505.62 823.34 490.25
  Q 823.34 489.99 823.30 489.80
  A 0.75 0.75 0.0 0 0 822.10 489.38
  L 658.11 619.23
  A 0.53 0.53 0.0 0 0 658.35 620.16
  C 678.18 623.50 695.10 623.16 713.15 613.64
  C 728.51 605.53 738.42 598.24 753.37 586.61
  Q 785.08 561.93 816.84 537.31
  Z"
/>
<path fill="#0a2b43" d="
  M 431.65 247.11
  Q 427.69 255.69 425.05 264.77
  C 423.47 270.18 418.66 274.33 416.01 266.25
  Q 413.10 257.36 409.45 248.75
  C 407.81 244.86 405.42 243.41 401.17 242.26
  Q 389.69 239.16 378.24 236.04
  C 375.42 235.28 372.26 233.06 374.03 229.71
  C 374.93 228.01 377.02 227.60 378.78 227.11
  Q 390.24 223.86 401.77 220.84
  C 406.76 219.53 408.08 217.68 409.74 213.01
  Q 413.27 203.01 416.52 191.01
  Q 416.97 189.35 418.73 187.69
  A 1.18 1.16 -61.6 0 1 419.71 187.39
  Q 423.01 187.87 424.17 191.57
  Q 426.97 200.45 429.70 209.37
  C 431.16 214.11 432.44 218.25 437.03 219.90
  Q 445.24 222.85 453.74 224.80
  C 456.66 225.47 464.69 227.31 466.24 229.96
  C 468.12 233.16 464.28 234.94 461.39 235.78
  Q 452.60 238.34 443.73 240.67
  C 439.60 241.76 433.34 243.46 431.65 247.11
  Z"
/>
<path fill="#0a2b43" d="
  M 627.08 243.83
  C 622.75 245.77 618.51 261.34 617.23 265.52
  C 615.85 270.02 611.26 273.05 609.08 266.66
  Q 607.12 260.93 605.14 255.21
  C 602.98 249.00 600.84 244.17 594.46 242.45
  Q 578.03 238.02 570.49 235.77
  C 567.83 234.98 565.65 232.85 566.88 229.85
  C 567.56 228.18 569.41 227.75 571.01 227.31
  Q 584.38 223.64 597.70 219.77
  Q 598.23 219.62 599.29 218.45
  Q 599.93 217.74 600.40 216.76
  C 604.29 208.60 606.37 199.97 608.81 191.31
  C 609.12 190.20 610.31 187.99 611.71 187.56
  C 615.12 186.53 616.94 191.88 617.72 194.75
  Q 619.33 200.68 623.54 212.99
  C 625.14 217.66 627.22 219.07 632.07 220.61
  C 640.35 223.26 648.95 224.75 657.07 227.89
  C 661.56 229.62 659.87 234.21 656.02 235.27
  Q 644.26 238.53 632.49 241.75
  Q 630.53 242.29 627.08 243.83
  Z"
/>
<path fill="#d7331e" d="
  M 488.70 275.14
  Q 489.75 273.67 490.66 271.40
  Q 499.87 248.33 509.12 225.28
  C 510.92 220.78 515.96 216.91 520.59 220.16
  Q 522.84 221.75 524.88 226.55
  Q 537.05 255.25 544.11 273.08
  Q 545.09 275.53 547.50 275.68
  Q 572.34 277.18 597.05 280.08
  C 607.57 281.32 608.73 288.89 601.34 295.59
  Q 578.01 316.75 565.55 327.05
  C 562.92 329.23 562.15 330.62 563.29 334.16
  Q 568.95 351.66 574.37 369.21
  C 576.61 376.47 580.14 385.50 573.91 390.17
  C 570.27 392.90 565.86 391.01 561.84 388.65
  Q 540.07 375.86 518.72 362.89
  A 2.79 2.78 -44.5 0 0 515.84 362.87
  Q 496.43 374.34 477.24 386.25
  C 471.60 389.75 463.62 394.76 458.99 388.46
  C 455.57 383.78 460.30 368.46 462.15 361.98
  Q 466.50 346.72 470.86 332.35
  A 3.12 3.10 28.8 0 0 469.90 329.07
  Q 452.69 314.34 436.57 300.17
  Q 433.25 297.25 430.20 294.03
  C 426.36 289.96 426.79 283.27 432.85 281.59
  Q 436.60 280.55 440.49 280.14
  Q 461.58 277.87 482.75 276.38
  Q 485.32 276.20 487.86 275.69
  Q 488.39 275.58 488.70 275.14
  Z
  M 516.89 274.77
  L 505.97 295.99
  A 4.77 4.26 7.1 0 1 502.59 298.33
  L 480.30 301.88
  A 0.81 0.80 64.6 0 0 479.83 303.21
  Q 487.57 311.89 495.95 320.29
  C 497.25 321.59 497.88 323.06 497.49 325.01
  Q 495.27 336.00 493.04 346.92
  A 0.36 0.36 0.0 0 0 493.56 347.31
  Q 503.46 342.11 513.50 336.77
  Q 515.59 335.66 517.35 335.21
  Q 517.85 335.09 518.31 335.33
  L 540.65 347.04
  A 0.48 0.48 0.0 0 0 541.34 346.50
  Q 538.58 335.76 536.25 324.65
  Q 535.76 322.34 537.16 320.93
  Q 546.37 311.63 555.48 302.40
  A 0.40 0.40 0.0 0 0 555.26 301.73
  Q 543.89 299.90 532.46 298.46
  C 530.05 298.16 528.84 297.22 527.77 295.20
  Q 522.38 284.99 516.98 274.77
  A 0.05 0.05 0.0 0 0 516.89 274.77
  Z"
/>
<path fill="#0a2b43" d="
  M 404.18 421.64
  A 3.61 3.60 13.8 0 0 405.15 423.24
  C 438.85 455.68 474.24 486.05 510.06 516.18
  C 515.21 520.51 518.65 519.37 523.31 515.31
  Q 544.36 496.94 582.03 465.13
  C 597.78 451.82 611.08 439.12 627.91 423.15
  Q 630.34 420.85 630.32 418.00
  Q 629.99 365.12 629.87 312.25
  Q 629.86 307.08 633.33 304.29
  Q 655.65 286.31 677.42 267.68
  C 679.47 265.92 682.10 267.19 682.12 270.00
  C 682.32 323.72 681.89 377.47 682.44 431.19
  A 2.75 2.74 70.1 0 1 681.44 433.33
  L 519.34 565.84
  A 0.54 0.53 -35.5 0 1 518.55 565.71
  Q 514.09 558.63 509.55 551.43
  C 496.71 531.04 474.91 516.46 450.61 515.02
  A 2.19 2.18 -21.6 0 1 449.26 514.44
  C 423.34 490.43 395.10 468.65 367.81 446.22
  Q 360.03 439.82 352.72 432.98
  A 2.51 2.50 -68.9 0 1 351.94 431.21
  Q 351.91 428.70 351.91 425.75
  Q 351.94 350.38 351.89 275.00
  Q 351.88 272.38 352.59 270.04
  A 1.99 1.98 -81.6 0 1 354.47 268.64
  Q 356.60 268.64 358.36 270.13
  Q 378.62 287.28 399.06 304.21
  C 401.60 306.31 403.78 307.88 403.78 311.05
  Q 403.73 365.40 403.94 419.75
  Q 403.94 420.84 404.18 421.64
  Z"
/>
<path fill="#fcfefe" d="
  M 516.89 274.77
  A 0.05 0.05 0.0 0 1 516.98 274.77
  Q 522.38 284.99 527.77 295.20
  C 528.84 297.22 530.05 298.16 532.46 298.46
  Q 543.89 299.90 555.26 301.73
  A 0.40 0.40 0.0 0 1 555.48 302.40
  Q 546.37 311.63 537.16 320.93
  Q 535.76 322.34 536.25 324.65
  Q 538.58 335.76 541.34 346.50
  A 0.48 0.48 0.0 0 1 540.65 347.04
  L 518.31 335.33
  Q 517.85 335.09 517.35 335.21
  Q 515.59 335.66 513.50 336.77
  Q 503.46 342.11 493.56 347.31
  A 0.36 0.36 0.0 0 1 493.04 346.92
  Q 495.27 336.00 497.49 325.01
  C 497.88 323.06 497.25 321.59 495.95 320.29
  Q 487.57 311.89 479.83 303.21
  A 0.81 0.80 64.6 0 1 480.30 301.88
  L 502.59 298.33
  A 4.77 4.26 7.1 0 0 505.97 295.99
  L 516.89 274.77
  Z"
/>
<path fill="#0a2b43" d="
  M 325.10 436.25
  C 325.09 439.49 327.89 441.48 330.19 443.33
  Q 363.13 469.92 395.33 497.39
  C 404.31 505.04 413.32 512.49 421.79 520.68
  A 0.88 0.88 0.0 0 1 421.38 522.17
  C 418.72 522.79 416.76 524.31 414.75 525.47
  Q 404.55 531.38 396.89 540.32
  Q 396.60 540.67 396.23 540.39
  Q 364.04 515.69 332.72 489.81
  C 314.09 474.42 293.17 457.76 279.06 446.20
  Q 277.50 444.91 275.83 442.75
  Q 275.53 442.35 275.52 441.85
  Q 275.47 437.89 275.50 434.00
  Q 275.94 367.87 276.97 301.75
  Q 277.02 298.59 279.32 297.61
  C 281.90 296.50 284.33 298.57 286.32 300.17
  Q 307.63 317.19 322.09 328.16
  Q 325.12 330.45 325.12 334.00
  Q 325.24 385.13 325.10 436.25
  Z"
/>
<path fill="#0a2b43" d="
  M 448.73 533.34
  C 466.41 533.38 482.44 542.44 493.36 556.16
  C 501.20 566.00 507.26 577.20 513.88 587.89
  C 519.53 597.01 524.87 591.66 530.59 586.75
  Q 548.60 571.28 566.94 556.20
  C 611.92 519.22 656.84 482.21 702.13 445.63
  Q 704.64 443.60 704.57 440.49
  Q 703.43 391.75 702.84 343.00
  C 702.78 338.30 702.88 335.51 706.47 332.53
  Q 735.09 308.84 746.81 299.31
  C 749.82 296.87 753.03 298.90 753.07 302.50
  Q 753.80 372.12 754.30 442.26
  A 2.24 2.24 0.0 0 1 753.46 444.03
  C 688.43 495.35 624.93 548.55 560.06 600.07
  Q 555.68 603.55 551.78 607.01
  A 4.49 4.43 18.0 0 1 549.66 608.07
  C 537.33 610.51 529.32 615.51 518.22 623.87
  Q 490.80 644.52 463.24 664.99
  Q 459.37 667.86 457.23 669.29
  Q 456.73 669.62 456.25 669.27
  Q 426.92 647.92 397.66 626.57
  C 395.12 624.72 390.30 621.87 390.34 618.33
  Q 390.52 602.91 391.60 589.77
  C 394.09 559.16 416.69 533.28 448.73 533.34
  Z"
/>
<path fill="#0a2b43" d="
  M 382.56 562.41
  C 379.44 570.36 376.00 579.40 375.06 587.92
  Q 374.94 589.06 374.01 588.38
  Q 351.60 572.03 329.35 555.93
  C 289.82 527.33 251.27 497.56 212.38 468.13
  C 210.19 466.48 204.63 462.90 204.63 460.00
  Q 204.54 415.30 205.39 378.98
  C 205.47 375.64 208.45 374.37 211.05 376.45
  Q 239.01 398.80 246.95 405.06
  C 250.62 407.95 250.37 410.51 250.41 415.56
  Q 250.55 432.16 250.67 448.75
  Q 250.70 452.75 253.12 454.85
  Q 260.65 461.38 268.40 467.60
  C 304.57 496.67 340.77 525.61 377.41 554.10
  Q 378.77 555.15 383.13 559.05
  Q 383.49 559.37 383.37 559.84
  Q 383.05 561.17 382.56 562.41
  Z"
/>
<path fill="#0a2b43" d="
  M 773.69 456.18
  C 775.94 454.38 777.35 453.28 777.34 450.25
  Q 777.28 421.47 777.40 411.75
  C 777.43 409.06 780.90 406.03 782.46 404.72
  Q 799.39 390.50 815.87 376.78
  A 2.50 2.49 -20.0 0 1 819.96 378.68
  L 820.54 461.39
  A 3.11 3.10 70.7 0 1 819.36 463.85
  L 625.72 616.29
  A 1.94 1.94 0.0 0 1 624.17 616.67
  L 585.92 609.40
  A 0.39 0.39 0.0 0 1 585.63 608.85
  Q 585.69 608.70 585.84 608.58
  C 597.19 599.02 610.14 589.07 620.47 580.64
  Q 660.25 548.21 700.19 515.98
  C 725.87 495.25 751.22 474.19 773.69 456.18
  Z"
/>
<path fill="#0a2b43" d="
  M 499.91 472.69
  Q 488.66 468.46 485.01 467.22
  Q 482.22 466.28 480.29 464.51
  Q 479.94 464.19 479.85 463.72
  Q 479.02 459.50 482.73 458.50
  Q 494.23 455.41 502.14 452.92
  C 504.45 452.19 505.13 448.66 505.33 447.01
  Q 507.96 424.99 510.71 402.99
  C 511.82 394.12 519.67 394.51 520.94 403.01
  Q 524.00 423.38 527.02 443.76
  C 527.76 448.75 528.41 451.71 533.75 453.48
  Q 540.79 455.81 548.02 457.49
  C 550.42 458.05 555.37 460.25 552.64 463.86
  Q 551.55 465.29 546.76 467.04
  C 538.39 470.11 530.08 471.76 526.23 478.10
  C 524.26 481.34 521.47 487.87 518.27 489.78
  C 515.68 491.32 512.89 487.58 511.80 485.71
  C 508.69 480.38 506.10 475.01 499.91 472.69
  Z"
/>
<path fill="#0a2b43" d="
  M 644.95 755.75
  C 612.99 746.94 584.29 754.99 557.34 773.61
  C 543.97 782.85 531.23 792.96 517.87 802.17
  A 2.42 2.40 -46.5 0 1 515.25 802.25
  Q 512.98 800.88 510.36 799.11
  C 446.42 756.05 376.46 709.87 318.08 670.42
  Q 315.59 668.73 312.13 666.04
  C 305.15 660.61 300.55 652.22 297.04 643.95
  Q 284.35 614.12 271.74 584.24
  C 270.76 581.91 269.58 580.51 267.42 578.90
  Q 239.69 558.33 211.93 537.80
  C 205.92 533.36 201.84 529.61 201.71 521.50
  Q 201.46 505.37 201.47 489.39
  A 0.49 0.48 -75.1 0 1 202.19 488.97
  Q 203.61 489.78 204.83 490.70
  C 224.90 505.93 245.01 521.30 265.49 535.96
  Q 315.42 571.71 364.84 608.16
  C 366.88 609.67 367.28 610.18 367.45 612.89
  C 368.45 628.22 374.85 643.00 387.78 651.96
  Q 419.20 673.74 450.30 695.98
  C 453.22 698.07 455.49 699.93 458.63 697.57
  Q 494.35 670.67 530.26 644.04
  C 536.80 639.18 543.88 633.51 551.81 631.23
  C 567.56 626.68 580.75 628.90 597.00 632.52
  Q 646.38 643.51 661.25 647.04
  C 695.87 655.26 718.74 638.71 744.13 620.64
  Q 745.42 619.72 747.06 619.73
  A 1.72 1.72 0.0 0 1 748.76 621.55
  Q 748.48 626.25 748.48 631.00
  Q 748.43 721.20 748.50 811.40
  C 748.50 814.98 746.23 817.13 742.83 814.85
  Q 712.32 794.40 681.86 773.86
  C 670.50 766.20 657.91 759.32 644.95 755.75
  Z"
/>
<path fill="#0a2b43" d="
  M 823.75 521.00
  C 823.89 527.34 821.98 533.32 816.84 537.31
  Q 785.08 561.93 753.37 586.61
  C 738.42 598.24 728.51 605.53 713.15 613.64
  C 695.10 623.16 678.18 623.50 658.35 620.16
  A 0.53 0.53 0.0 0 1 658.11 619.23
  L 822.10 489.38
  A 0.75 0.75 0.0 0 1 823.30 489.80
  Q 823.34 489.99 823.34 490.25
  Q 823.41 505.62 823.75 521.00
  Z"
/>
</svg>
