<?xml version="1.0" standalone="no"?><!DOCTYPE svg PUBLIC "-//W3C//DTD SVG 1.1//EN" "http://www.w3.org/Graphics/SVG/1.1/DTD/svg11.dtd"><svg t="1686908409523" class="icon" viewBox="0 0 1024 1024" version="1.1" xmlns="http://www.w3.org/2000/svg" p-id="2535" width="32" height="32" xmlns:xlink="http://www.w3.org/1999/xlink"><path d="M512.001 753.328a235.2 235.2 0 1 0 470.398 0 235.2 235.2 0 1 0-470.398 0z" fill="#F16051" p-id="2536"></path><path d="M230.4 546.927L16 646.127l214.4 97.6 212.8-97.6z" fill="#FFFFFF" p-id="2537"></path><path d="M230.4 759.728c-1.6 0-4.8 0-6.4-1.6l-214.4-97.6c-6.399-3.201-9.6-9.601-9.6-14.4 0-6.4 3.201-11.2 9.6-14.4l214.402-99.201c4.8-1.6 9.6-1.6 12.8 0l214.4 99.2c6.4 3.201 9.602 8 9.602 14.4s-3.201 11.2-9.601 14.4l-214.401 99.2H230.4z m-176-113.6l176 81.6 175.999-81.6-176-81.601-175.999 81.6z" fill="#193651" p-id="2538"></path><path d="M129.6 646.127l100.8-46.4 99.2 46.4-99.2 44.8z" fill="#E1E6E9" p-id="2539"></path><path d="M230.4 1007.727L16 908.527v-262.4l214.4 97.6z" fill="#4FBF9F" p-id="2540"></path><path d="M222.4 1022.127l-212.8-99.2c-6.399-1.6-9.6-8-9.6-14.4v-262.4c0-4.799 3.201-11.199 8-12.8 4.8-3.2 9.601-3.2 16.001-1.6l214.401 99.2c6.4 3.201 9.601 8 9.601 14.4v262.4c0 4.8-3.2 11.2-8 12.8-6.402 3.2-11.204 4.801-17.604 1.6zM32 898.928l182.399 84.8v-228.8l-182.4-84.801v228.801z" fill="#193651" p-id="2541"></path><path d="M80 868.527v-123.2l86.4 40v121.601z" fill="#FFFFFF" p-id="2542"></path><path d="M230.4 1007.727l212.8-99.2v-262.4l-212.8 97.6z" fill="#4FBF9F" p-id="2543"></path><path d="M220.8 1020.527c-4.799-3.2-8-8-8-12.8v-264c0-6.4 3.201-11.2 9.601-14.4l214.401-99.2c4.8-1.6 11.2-1.6 16.001 1.6 4.8 3.201 8 8 8 12.8v264c0 6.4-3.2 11.2-9.6 14.4l-214.401 99.2c-4.802 3.201-11.202 1.6-16.001-1.6z m25.6-265.599v228.8l182.4-84.8V670.127l-182.4 84.801z" fill="#193651" p-id="2544"></path><path d="M294.4 785.328l84.8-40v123.199l-84.8 38.401z m-64-769.6L16 114.929l214.4 99.2 212.8-99.2z" fill="#FFFFFF" p-id="2545"></path><path d="M230.4 230.127c-1.6 0-4.8 0-6.4-1.6l-214.4-99.2c-6.399-3.199-9.6-7.998-9.6-14.398 0-6.4 3.201-11.2 9.6-14.4L224 1.328c4.8-1.601 9.6-1.601 12.8 0l214.4 99.2c6.4 3.2 9.602 8 9.602 14.4s-3.201 11.199-9.601 14.4l-214.401 99.2c-1.6-0.002-4.8 1.598-6.4 1.598zM54.4 114.93l176 81.6 175.999-81.6-176-81.601-175.999 81.6z" fill="#193651" p-id="2546"></path><path d="M129.6 114.929l100.8-46.4 99.2 46.4-99.2 46.4z" fill="#E1E6E9" p-id="2547"></path><path d="M230.4 476.528L16 377.328v-262.4l214.4 99.2z" fill="#2EA2DB" p-id="2548"></path><path d="M222.4 490.928L9.6 393.327c-6.399-3.2-9.6-9.599-9.6-15.999v-262.4c0-4.799 3.201-11.199 8-12.8 4.8-3.2 9.601-3.2 16.001-1.6l214.401 99.2c6.4 3.201 9.601 8 9.601 14.4v264c0 4.8-3.2 11.2-8 12.8-6.402 3.2-11.204 3.2-17.604 0zM32 367.728l182.399 84.799v-228.8l-182.4-84.8v228.8z" fill="#193651" p-id="2549"></path><path d="M80 337.328v-123.2l86.4 40v123.2z" fill="#FFFFFF" p-id="2550"></path><path d="M230.4 476.528l212.8-99.2v-262.4l-212.8 99.2z" fill="#2EA2DB" p-id="2551"></path><path d="M220.8 490.928c-4.799-3.2-8-8-8-12.8v-264c0-6.4 3.201-11.199 9.601-14.4l214.401-99.2c4.8-1.6 11.2-1.6 16.001 1.6s8 8.001 8 12.8v264c0 6.4-3.2 11.2-9.6 14.4L236.802 492.53c-4.802 1.598-11.202 1.598-16.001-1.6z m25.6-267.2v228.799l180.801-84.8v-228.8l-180.8 84.8z" fill="#193651" p-id="2552"></path><path d="M294.4 254.129l84.8-40v123.199l-84.8 40z m499.2-238.4l-212.8 99.2 212.8 99.2 214.4-99.2z" fill="#FFFFFF" p-id="2553"></path><path d="M793.6 230.127c-1.6 0-4.8 0-6.4-1.6l-212.8-99.2c-6.4-3.201-9.601-8-9.601-14.4s3.201-11.2 9.6-14.4L788.802 1.327c4.8-1.6 9.6-1.6 12.8 0l214.4 99.2c4.8 1.6 8.001 8 8.001 14.4s-3.199 11.2-9.6 14.401L800 228.529c-1.6-0.002-3.2 1.598-6.4 1.598zM619.2 114.93l175.999 81.6 175.999-81.6-176-81.601-175.999 81.6z" fill="#193651" p-id="2554"></path><path d="M694.4 114.929l99.2-46.4 100.799 46.4-100.799 46.4z" fill="#E1E6E9" p-id="2555"></path><path d="M793.6 476.528l-212.8-99.2v-262.4l212.8 99.2z" fill="#FDBF5E" p-id="2556"></path><path d="M793.6 492.527c-1.6 0-4.8 0-6.4-1.6l-214.4-99.2c-6.4-3.202-9.602-8.001-9.602-14.401V114.929c0-4.8 3.201-11.2 8-12.8 4.8-3.201 9.602-3.201 16.002-1.6l214.4 99.2c6.4 3.2 9.602 8 9.602 14.4v264c0 4.799-3.201 11.199-8 12.8-3.202 1.598-6.403 1.598-9.602 1.598z m-196.8-124.8l182.4 84.8v-228.8l-182.4-84.8v228.8z" fill="#193651" p-id="2557"></path><path d="M644.8 337.328v-123.2l84.799 40v123.2z" fill="#FFFFFF" p-id="2558"></path><path d="M793.6 476.528l214.4-99.2v-262.4l-214.4 99.2z" fill="#FDBF5E" p-id="2559"></path><path d="M793.6 492.527c-3.2 0-6.4-1.6-8-3.201-4.8-3.201-8-8-8-12.8V214.129c0-6.4 3.2-11.2 9.6-14.4l214.401-99.2c4.8-1.601 11.2-1.601 16.001 1.6 3.201 1.6 6.4 6.4 6.4 12.8v264c0 6.4-3.199 11.199-9.6 14.4L800 492.529l-6.4-0.002z m16-268.8v228.8l182.398-84.8v-228.8l-182.399 84.8z" fill="#193651" p-id="2560"></path><path d="M857.6 254.129l86.4-40v123.199l-86.4 40z" fill="#FFFFFF" p-id="2561"></path><path d="M639.81 866.312l-22.626 22.627-24.89-24.89 22.626-22.626z m248.016-248.004L865.2 640.934l-24.89-24.89 22.625-22.626z m-248-2.293l-24.892 24.89-22.625-22.625 24.89-24.89zM548.8 722.927h32v35.2h-32z m172.8-172.799h35.201v32h-35.2z" fill="#193651" p-id="2562"></path><path d="M956.8 746.928l-273.6-62.401 62.4 273.6 51.2-91.199 129.6 129.6 68.8-68.801-129.6-129.6z" fill="#FFFFFF" p-id="2563"></path><path d="M926.4 1012.528c-4.799 0-8-1.6-11.199-4.8l-115.2-115.2-40 73.6c-3.202 6.4-9.602 9.601-16.002 8-6.4-1.6-11.2-6.4-12.8-12.8L667.2 686.13c-1.6-4.8 0-11.2 4.8-14.4 3.2-3.202 9.6-4.8 14.4-4.8l275.2 64c6.399 1.6 11.198 6.4 12.799 12.799 1.6 6.4-1.6 12.8-8 16l-73.6 40.001 113.6 113.6c6.4 6.4 6.4 16.001 0 22.401l-68.801 72c-3.2 3.197-6.398 4.797-11.198 4.797z m-129.6-161.6c4.799 0 8 1.6 11.199 4.799l118.4 118.4 46.4-46.4-118.4-118.4c-3.201-3.201-4.8-8-4.8-12.8s3.201-9.601 8-11.2l56.002-30.399-209.6-48 48 209.6 30.4-56.002c3.2-4.8 6.4-8 11.2-8 1.6-1.599 3.198-1.599 3.198-1.599z" fill="#193651" p-id="2564"></path><path d="M864 726.128l-180.8-41.601 41.6 180.8" fill="#E1E6E9" p-id="2565"></path><path d="M724.8 881.327c-8.001 0-14.401-4.8-16.001-12.8l-41.601-180.801c-1.6-4.8 0-11.2 4.8-14.4 3.2-3.201 9.6-4.8 14.4-4.8l180.8 41.6c8 1.601 14.4 11.2 11.2 19.2-1.6 8.001-11.2 14.401-19.2 11.2l-155.201-35.2 36.8 156.799c1.6 8-3.202 17.599-11.2 19.2l-4.798 0.002z" fill="#193651" p-id="2566"></path></svg>