<?xml version="1.0" standalone="no"?><!DOCTYPE svg PUBLIC "-//W3C//DTD SVG 1.1//EN" "http://www.w3.org/Graphics/SVG/1.1/DTD/svg11.dtd"><svg t="1686908549955" class="icon" viewBox="0 0 1024 1024" version="1.1" xmlns="http://www.w3.org/2000/svg" p-id="2535" xmlns:xlink="http://www.w3.org/1999/xlink" width="32" height="32"><path d="M0.001 511.999002a510.989068 510.989068 0 1 0 1021.978136 0A510.989068 510.989068 0 1 0 0.001 511.999002z" fill="#E1E6E9" p-id="2536"></path><path d="M105.392701 511.999002a405.597367 405.597367 0 1 0 811.194734 0 405.597367 405.597367 0 1 0-811.194734 0z" fill="#FFFFFF" p-id="2537"></path><path d="M510.990068 933.565806c-231.542374 0-421.566804-190.024431-421.566804-421.566804S279.448692 90.432197 510.991066 90.432197s421.566804 188.427587 421.566805 421.566805c0 231.542374-190.024431 421.566804-421.566805 421.566804z m0-811.194733c-213.978088 0-389.629925 175.652835-389.629925 389.629925s175.651837 389.629925 389.629925 389.629925 389.629925-175.651837 389.629925-389.629925-175.652835-389.629925-389.629925-389.629925z" fill="#193651" p-id="2538"></path><path d="M247.510815 494.434716h31.936879V527.96844h-31.936879z m495.021627 0h31.936879V527.96844h-31.936879zM493.425783 248.519749H526.959506v31.936879h-33.533723z m0 495.021627H526.959506v31.936879h-33.533723zM710.22729 337.440005l-22.580371 22.581369-23.713133-23.713132 22.582368-22.58137z m-352.176948 350.297663l-22.582368 22.583365-23.713132-23.713133 22.582367-22.581369z m351.244791-0.229547l-23.713133 23.713133-22.58137-22.582368 23.713133-23.713132zM358.981502 335.37808l-23.713133 23.713133-22.58137-22.582368 23.713133-23.713133z" fill="#193651" p-id="2539"></path><path d="M566.880605 492.837873H453.504684c-41.518941 0-75.052664 33.533723-75.052664 75.051665v83.035886h261.882409V567.889538C641.93227 526.371596 608.398547 492.837873 566.880605 492.837873z" fill="#4FBF9F" p-id="2540"></path><path d="M440.728934 406.607301a70.261134 70.261134 0 1 0 140.522268 0 70.261134 70.261134 0 1 0-140.522268 0z" fill="#FDBF5E" p-id="2541"></path><path d="M427.95518 115.982699a71.857978 71.857978 0 1 0 143.715956 0 71.857978 71.857978 0 1 0-143.715956 0z" fill="#2EA2DB" p-id="2542"></path><path d="M499.813158 203.809116c-47.906317 0-87.827416-39.921099-87.827415-87.827415s39.921099-87.826418 87.826417-87.826418 87.827416 39.921099 87.827416 87.826418c0 49.502163-39.921099 87.826418-87.826418 87.826417z m0-143.715956c-30.340035 0-55.890537 25.549503-55.890536 55.889539s25.549503 55.891535 55.889538 55.891534 55.891535-25.549503 55.891535-55.890536S530.153194 60.09316 499.813158 60.09316z" fill="#193651" p-id="2543"></path><path d="M427.95518 908.017301a71.857978 71.857978 0 1 0 143.715956 0 71.857978 71.857978 0 1 0-143.715956 0z" fill="#2EA2DB" p-id="2544"></path><path d="M499.813158 995.843719c-47.906317 0-87.827416-39.921099-87.827415-87.826418s39.921099-87.828414 87.826417-87.828413 87.827416 39.921099 87.827416 87.827415-39.921099 87.826418-87.826418 87.826418z m0-143.715956c-30.340035 0-55.890537 25.549503-55.890536 55.890536s25.549503 55.890537 55.889538 55.890537 55.891535-25.549503 55.891535-55.889539S530.153194 852.127763 499.813158 852.127763z" fill="#193651" p-id="2545"></path><path d="M718.766414 232.575262a71.857978 71.857978 0 1 0 143.715956 0 71.857978 71.857978 0 1 0-143.715956 0z" fill="#FFFFFF" p-id="2546"></path><path d="M728.160846 294.829222c-35.130567-35.132563-35.130567-89.423262 0-124.553829s89.422264-35.131565 124.553829 0 35.130567 89.421266 0 124.553829c-33.532725 33.533723-89.423262 33.533723-124.553829 0z m22.355815-102.198013c-22.355815 22.355815-22.355815 57.486382 0 79.842198 20.759969 20.758971 57.486382 20.758971 79.842198 0 22.357811-22.355815 22.357811-57.486382 0-79.842198s-57.485384-22.355815-79.842198 0z" fill="#193651" p-id="2547"></path><path d="M159.502757 791.358868a71.857978 71.857978 0 1 0 143.715956 0 71.857978 71.857978 0 1 0-143.715956 0z" fill="#FFFFFF" p-id="2548"></path><path d="M169.266459 853.724607c-35.131565-35.130567-35.131565-89.421266 0-124.553829s89.421266-35.130567 124.553829 0c33.533723 35.132563 33.533723 89.423262 0 124.553829-35.130567 35.130567-91.020106 35.130567-124.553829 0zM191.622275 751.526593c-22.355815 22.355815-22.355815 57.486382 0 79.842198 20.758971 20.758971 57.486382 20.758971 79.842198 0 22.356813-22.355815 22.356813-57.486382 0-79.842198-22.355815-20.758971-57.486382-20.758971-79.842198 0z" fill="#193651" p-id="2549"></path><path d="M835.150389 511.999002a71.857978 71.857978 0 1 0 143.714958 0 71.857978 71.857978 0 1 0-143.715956 0z" fill="#F16051" p-id="2550"></path><path d="M907.008367 599.826418c-47.906317 0-87.828414-39.921099-87.828413-87.827416s39.921099-87.826418 87.827415-87.826418 87.826418 39.921099 87.826418 87.826418-39.921099 87.826418-87.826418 87.826418z m0-143.715956c-30.340035 0-55.891535 25.549503-55.891534 55.890536 0 30.340035 25.549503 55.890537 55.890536 55.890537s55.890537-25.549503 55.890537-55.890537S937.348402 456.110462 907.008367 456.110462z" fill="#193651" p-id="2551"></path><path d="M43.116785 511.999002a71.857978 71.857978 0 1 0 143.715956 0 71.857978 71.857978 0 1 0-143.715956 0z" fill="#F16051" p-id="2552"></path><path d="M114.973765 599.826418c-47.905319 0-87.826418-39.921099-87.826418-87.827416s39.921099-87.826418 87.826418-87.826418 87.828414 39.921099 87.828414 87.826418-38.326251 87.826418-87.827416 87.826418z m0-143.715956c-30.338039 0-55.889538 25.549503-55.889539 55.890536 0 30.340035 25.549503 55.890537 55.889539 55.890537s55.891535-25.549503 55.891534-55.890537C170.863303 481.659965 146.910644 456.110462 114.973765 456.110462z" fill="#193651" p-id="2553"></path><path d="M718.485968 791.607377a71.857978 71.857978 0 1 0 143.715956 0 71.857978 71.857978 0 1 0-143.715956 0z" fill="#FDBF5E" p-id="2554"></path><path d="M728.160846 853.724607c-35.130567-35.130567-35.130567-89.421266 0-124.553829s89.422264-35.130567 124.553829 0 35.130567 89.423262 0 124.553829c-33.532725 35.130567-89.423262 35.130567-124.553829 0z m22.355815-102.198014c-22.355815 22.355815-22.355815 57.486382 0 79.842198 20.759969 20.758971 57.486382 20.758971 79.842198 0 22.357811-22.355815 22.357811-57.486382 0-79.842198-22.355815-20.758971-57.485384-20.758971-79.842198 0z" fill="#193651" p-id="2555"></path><path d="M159.765238 232.360686a71.857978 71.857978 0 1 0 143.715956 0 71.857978 71.857978 0 1 0-143.715956 0z" fill="#FDBF5E" p-id="2556"></path><path d="M169.266459 294.829222c-35.131565-35.132563-35.131565-89.423262 0-124.553829s89.421266-35.131565 124.553829 0c33.533723 33.533723 33.533723 89.421266 0 124.553829-35.130567 33.533723-91.020106 33.533723-124.553829 0zM191.622275 192.631209c-22.355815 22.355815-22.355815 57.486382 0 79.842198 20.758971 20.758971 57.486382 20.758971 79.842198 0 22.356813-22.355815 22.356813-57.486382 0-79.842198-22.355815-22.355815-57.486382-22.355815-79.842198 0z" fill="#193651" p-id="2557"></path></svg>