<?xml version="1.0" ?><!DOCTYPE svg  PUBLIC '-//W3C//DTD SVG 1.1//EN'  'http://www.w3.org/Graphics/SVG/1.1/DTD/svg11.dtd'><svg height="100%" style="fill-rule:evenodd;clip-rule:evenodd;stroke-linejoin:round;stroke-miterlimit:2;" version="1.1" viewBox="0 0 64 64" width="100%" xml:space="preserve" xmlns="http://www.w3.org/2000/svg" xmlns:serif="http://www.serif.com/" xmlns:xlink="http://www.w3.org/1999/xlink"><g transform="matrix(1,0,0,1,-480,-320)"><g id="pexels-apps-platform" transform="matrix(1,0,0,1,480,320)"><rect height="64" style="fill:none;" width="64" x="0" y="0"/><g transform="matrix(1,0,0,1,-480,-320)"><path d="M538,336C538,330.481 533.519,326 528,326L496,326C490.481,326 486,330.481 486,336L486,368C486,373.519 490.481,378 496,378L528,378C533.519,378 538,373.519 538,368L538,336Z" style="fill:rgb(149,214,164);"/></g><g transform="matrix(1,0,0,1,-480,-320)"><path d="M490.001,328.001C488.745,329.672 488,331.75 488,334L488,366C488,371.519 492.481,376 498,376L530,376C532.25,376 534.328,375.255 535.999,373.999C534.174,376.428 531.269,378 528,378L496,378C490.481,378 486,373.519 486,368L486,336C486,332.731 487.572,329.826 490.001,328.001Z" style="fill:rgb(120,194,164);"/></g><g transform="matrix(1,0,0,1,-482,-320)"><path d="M518,358C517.735,358 517.48,358.105 517.293,358.293C517.105,358.48 517,358.735 517,359C517,360.537 517,363.463 517,365C517,365.552 516.552,366 516,366C513.273,366 505.727,366 503,366C502.448,366 502,365.552 502,365C502,360.645 502,343.355 502,339C502,338.448 502.448,338 503,338C505.537,338 512.42,338 518,338C522.418,338 526,341.582 526,346C526,347.317 526,348.683 526,350C526,354.418 522.418,358 518,358C518,358 518,358 518,358ZM517,354C519.761,354 522,351.761 522,349C522,348.339 522,347.661 522,347C522,344.239 519.761,342 517,342C513.444,342 508.964,342 507,342C506.448,342 506,342.448 506,343C506,346.414 506,357.586 506,361C506,361.265 506.105,361.52 506.293,361.707C506.48,361.895 506.735,362 507,362C508.331,362 510.669,362 512,362C512.265,362 512.52,361.895 512.707,361.707C512.895,361.52 513,361.265 513,361C513,359.463 513,356.537 513,355C513,354.735 513.105,354.48 513.293,354.293C513.48,354.105 513.735,354 514,354C514.756,354 515.856,354 517,354Z" style="fill:rgb(249,246,249);"/></g><g transform="matrix(1,0,0,1,-482,-320)"><path d="M518,358.5C522.694,358.5 526.5,354.694 526.5,350C526.5,348.683 526.5,347.317 526.5,346C526.5,341.306 522.694,337.5 518,337.5C512.42,337.5 505.537,337.5 503,337.5C502.172,337.5 501.5,338.172 501.5,339C501.5,343.355 501.5,360.645 501.5,365C501.5,365.828 502.172,366.5 503,366.5C505.727,366.5 513.273,366.5 516,366.5C516.828,366.5 517.5,365.828 517.5,365C517.5,363.463 517.5,360.537 517.5,359C517.5,358.867 517.553,358.74 517.646,358.646C517.74,358.553 517.867,358.5 518,358.5L518,358.5ZM518,357.5C522.142,357.5 525.5,354.142 525.5,350C525.5,348.683 525.5,347.317 525.5,346C525.5,341.858 522.142,338.5 518,338.5C512.42,338.5 505.537,338.5 503,338.5C502.724,338.5 502.5,338.724 502.5,339C502.5,343.355 502.5,360.645 502.5,365C502.5,365.276 502.724,365.5 503,365.5C505.727,365.5 513.273,365.5 516,365.5C516.276,365.5 516.5,365.276 516.5,365C516.5,363.463 516.5,360.537 516.5,359C516.5,358.602 516.658,358.221 516.939,357.939C517.221,357.658 517.602,357.5 518,357.5ZM517,354.5C520.038,354.5 522.5,352.038 522.5,349C522.5,348.339 522.5,347.661 522.5,347C522.5,343.962 520.038,341.5 517,341.5C513.444,341.5 508.964,341.5 507,341.5C506.172,341.5 505.5,342.172 505.5,343C505.5,346.414 505.5,357.586 505.5,361C505.5,361.398 505.658,361.779 505.939,362.061C506.221,362.342 506.602,362.5 507,362.5C508.331,362.5 510.669,362.5 512,362.5C512.398,362.5 512.779,362.342 513.061,362.061C513.342,361.779 513.5,361.398 513.5,361C513.5,359.463 513.5,356.537 513.5,355C513.5,354.867 513.553,354.74 513.646,354.646C513.74,354.553 513.867,354.5 514,354.5L517,354.5ZM517,353.5C515.856,353.5 514.756,353.5 514,353.5C513.602,353.5 513.221,353.658 512.939,353.939C512.658,354.221 512.5,354.602 512.5,355C512.5,356.537 512.5,359.463 512.5,361C512.5,361.133 512.447,361.26 512.354,361.354C512.26,361.447 512.133,361.5 512,361.5C510.669,361.5 508.331,361.5 507,361.5C506.867,361.5 506.74,361.447 506.646,361.354C506.553,361.26 506.5,361.133 506.5,361C506.5,357.586 506.5,346.414 506.5,343C506.5,342.724 506.724,342.5 507,342.5C508.964,342.5 513.444,342.5 517,342.5C519.485,342.5 521.5,344.515 521.5,347C521.5,347.661 521.5,348.339 521.5,349C521.5,351.485 519.485,353.5 517,353.5Z"/></g><g transform="matrix(1,0,0,1,-480,-320)"><path d="M538.5,336C538.5,330.205 533.795,325.5 528,325.5C528,325.5 496,325.5 496,325.5C490.205,325.5 485.5,330.205 485.5,336C485.5,336 485.5,368 485.5,368C485.5,373.795 490.205,378.5 496,378.5L528,378.5C533.795,378.5 538.5,373.795 538.5,368C538.5,368 538.5,336 538.5,336ZM537.5,336L537.5,368C537.5,373.243 533.243,377.5 528,377.5C528,377.5 496,377.5 496,377.5C490.757,377.5 486.5,373.243 486.5,368L486.5,336C486.5,330.757 490.757,326.5 496,326.5L528,326.5C533.243,326.5 537.5,330.757 537.5,336Z"/></g></g></g></svg>