<?xml version="1.0" encoding="utf-8"?>
<!-- Generator: Adobe Illustrator 16.0.0, SVG Export Plug-In . SVG Version: 6.00 Build 0)  -->
<!DOCTYPE svg PUBLIC "-//W3C//DTD SVG 1.1//EN" "http://www.w3.org/Graphics/SVG/1.1/DTD/svg11.dtd">
<svg version="1.1" id="Layer_1" xmlns="http://www.w3.org/2000/svg" xmlns:xlink="http://www.w3.org/1999/xlink" x="0px" y="0px"
	 width="100px" height="100px" viewBox="0 0 100 100" enable-background="new 0 0 100 100" xml:space="preserve">
<g>
	<path d="M91.241,72.95l-4.777-31.239c-0.308-2.014-2.311-4.31-5.032-4.31c-2.569,0-4.569,2.015-5.135,4.031l-8.265,22.17h-0.101
		L59.95,41.906c-0.106-0.381-0.278-0.758-0.481-1.125c-1.034-2.277-3.096-3.508-5.602-3.508c-3.625,0-6.326,2.574-6.326,7.169V72.15
		c0,8.09-5.23,15.163-12.901,15.163c-8.014,0-12.993-6.709-12.993-15.163V7.168c0-4.595-2.694-7.168-6.32-7.168
		C11.702,0,9,2.574,9,7.168v65.714C9,88.508,20.552,100,34.641,100c13.913,0,25.549-11.676,25.549-27.117V60.654l3.686,14.03
		c0.358,1.344,1.336,3.249,4.107,3.249s3.745-1.905,4.105-3.249l8.37-23.456h0.1l3.031,22.787c0.36,2.629,1.386,3.918,4.006,3.918
		c2.055,0,3.696-1.57,3.696-4.029C91.291,73.623,91.291,73.287,91.241,72.95z"/>
</g>
</svg>
