<svg viewBox="0 0 512 512" xmlns="http://www.w3.org/2000/svg">
<rect width="512" height="512" rx="50" ry="50" fill="#4876ff"/>
<path fill="#fff" d="M322.5 89h2.5c9 0 17.5 1.9 25.2 5.6 5.2 2.9 9.6 6.5 13.3 10.8 6.1 7.5 10.5 16.4 13 26.7 2.3 9 3.4 19 3.5 29.5.1 7 0 13.9-.3 20.6 0 .2.4 0 1.3-.4 5.2-2.6 10.2-5.5 15-8.7 4.6-2 9-2 12.7-.2 2 .8 3 3 3 7 0 5-.9 9.4-2.6 13.5-2.4 6-6.3 11.5-11.8 16.3-5 4.4-11 7.9-17.8 10.5-.8.3-1.3.8-1.3 1.4l-2.4 24.6c-2 18.4-5 36-9.3 53-4.7 16-10.5 31.3-17.4 46-6.3 13.6-14.5 26-24.8 37-8.6 9-18 16.5-28.4 22.4-12.6 7.2-26.2 12.2-40.7 15-14.4 3-29.3 4-44.5 3.3-15.2-.6-29.3-4.3-42.4-11-7-4-13.2-8.8-18.3-14.5-7.9-9.7-12.8-21-14.9-33.6-1-5.6-1.6-11-1.7-16-.5-5-.2-10.4 1-16 2.8-14.6 6.3-29.5 10.4-44.8l15.3-61c2.3-9.7 4.3-18.6 5.8-27 2.6-13 3.4-25.4 2.3-37-.4-7.3-2.5-13.8-6.3-19.4-2.9-3.2-6.3-5-10.2-5-4.7-.2-8.8 1-12.5 3.8l-18.8 13.5c-3.6 2.6-7.4 4-11.4 4.3-2.9.2-5-.4-6.4-1.8-1.3-1.3-2-3.4-2.2-6.3-.7-11.8 2.4-22.2 9.3-31.2 4-5 9-9.5 15.1-13.4 8.2-5.6 17.2-9.6 27.1-12 8.3-2 17.3-2.6 27-2.2 9.7.7 18.3 3.6 26 8.8 5.4 4 10 9 13.5 14.8 8.7 13.6 12.6 28.9 11.8 45.7-.3 16.2-2.5 32-6.5 47.8l-15.2 65c-2.9 12.7-5.2 24.8-7 36.2-1.4 11-1.6 22-.8 33.3.8 7 4.1 12.7 9.8 17.2 3.2 2.4 7 4 11.2 5 3.8.8 8 1.3 12.8 1.4 15-.2 28.5-4.6 40.7-13.2 6-4.2 11.6-9 16.8-14.4 8-8.6 14.5-18 20-28.4 8.6-17 15-35 19-53.6 2.2-9.4 4.1-19.8 6-31.3-14.6-.7-28-4.4-40.5-11.1-5.2-3.1-10-7-14.5-11.8-5-5.5-9-11.4-11.8-17.8-4.4-10.2-6.8-21-7-32.7-.5-8.8.5-17.2 3-25.2 3.5-10.1 9.5-18.7 18-26 6.1-5 13.2-8.5 21.2-10.6 5.5-1.4 11.2-2.2 17-2.3zm5.4 38.5c-2.6 0-4.6 1-5.9 3.2-.5.8-.8 1.6-1.2 2.5l-.8 2.6-.4 2.8v3c0 2.2.1 4.2.3 6s.5 3.8 1 5.5l.6 3c.3 1 .5 2 1 3 .2 1 .6 1.9 1 2.8l1.2 2.7 1.5 2.6c.5.9 1.1 1.6 1.7 2.4l2 2.3 2.2 2.2c1.4 1.4 3 2.6 4.4 3.7s3 2 4.6 2.9c.4-8.4.7-16.8.8-25.2v-5c0-1.6-.3-3.2-.5-4.7l-.7-4.5-1-4.3c-.2-.8-.5-1.6-1-2.4l-1.6-2.7c-1.4-2.1-3.3-3.5-5.5-4.2l-2.4-.4H328z"/>
</svg>