<?xml version="1.0" ?><!DOCTYPE svg  PUBLIC '-//W3C//DTD SVG 1.1//EN'  'http://www.w3.org/Graphics/SVG/1.1/DTD/svg11.dtd'><svg height="100%" style="fill-rule:evenodd;clip-rule:evenodd;stroke-linejoin:round;stroke-miterlimit:2;" version="1.1" viewBox="0 0 64 64" width="100%" xml:space="preserve" xmlns="http://www.w3.org/2000/svg" xmlns:serif="http://www.serif.com/" xmlns:xlink="http://www.w3.org/1999/xlink"><g transform="matrix(1,0,0,1,-480,-320)"><g id="pexels-apps-platform" transform="matrix(1,0,0,1,480,320)"><rect height="64" style="fill:none;" width="64" x="0" y="0"/><g transform="matrix(1,0,0,1,-480,-320)"><path d="M538,336C538,330.481 533.519,326 528,326L496,326C490.481,326 486,330.481 486,336L486,368C486,373.519 490.481,378 496,378L528,378C533.519,378 538,373.519 538,368L538,336Z" style="fill:rgb(149,214,164);"/></g><g transform="matrix(1,0,0,1,-480,-320)"><path d="M490.001,328.001C488.745,329.672 488,331.75 488,334L488,366C488,371.519 492.481,376 498,376L530,376C532.25,376 534.328,375.255 535.999,373.999C534.174,376.428 531.269,378 528,378L496,378C490.481,378 486,373.519 486,368L486,336C486,332.731 487.572,329.826 490.001,328.001Z" style="fill:rgb(120,194,164);"/></g><g transform="matrix(1,0,0,1,-482,-320)"><path d="M518,358C517.735,358 517.48,358.105 517.293,358.293C517.105,358.48 517,358.735 517,359C517,360.537 517,363.463 517,365C517,365.552 516.552,366 516,366C513.273,366 505.727,366 503,366C502.448,366 502,365.552 502,365C502,360.645 502,343.355 502,339C502,338.448 502.448,338 503,338C505.537,338 512.42,338 518,338C522.418,338 526,341.582 526,346C526,347.317 526,348.683 526,350C526,354.418 522.418,358 518,358C518,358 518,358 518,358ZM517,354C519.761,354 522,351.761 522,349C522,348.339 522,347.661 522,347C522,344.239 519.761,342 517,342C513.444,342 508.964,342 507,342C506.448,342 506,342.448 506,343C506,346.414 506,357.586 506,361C506,361.265 506.105,361.52 506.293,361.707C506.48,361.895 506.735,362 507,362C508.331,362 510.669,362 512,362C512.265,362 512.52,361.895 512.707,361.707C512.895,361.52 513,361.265 513,361C513,359.463 513,356.537 513,355C513,354.735 513.105,354.48 513.293,354.293C513.48,354.105 513.735,354 514,354C514.756,354 515.856,354 517,354Z" style="fill:rgb(249,246,249);"/></g></g></g></svg>