<?xml version="1.0" encoding="UTF-8"?>
<svg width="300px" height="300px" viewBox="0 0 300 300" version="1.1" xmlns="http://www.w3.org/2000/svg" xmlns:xlink="http://www.w3.org/1999/xlink">
    <title>PromptPerfect  - Light</title>
    <g id="PromptPerfect----Light" stroke="none" stroke-width="1" fill="none" fill-rule="evenodd">
        <g id="编组" transform="translate(42.000000, 30.000000)">
            <path d="M49.3181818,112.653061 C49.3181818,77.4871751 77.8257651,48.9795918 112.991651,48.9795918 L187.612245,48.9795918 C203.842654,48.9795918 217,62.136938 217,78.3673469 L217,146.938776 C217,163.169184 203.842654,176.326531 187.612245,176.326531 L98.6361818,176.325592 L98.6363636,240 L49.3181818,240 L49.3181818,112.653061 Z" id="形状结合备份-7" fill="#03DAC6"></path>
            <path d="M0,29.3877551 C-5.54036552e-15,13.1573461 13.1573461,3.49559009e-14 29.3877551,2.84217094e-14 L138.294063,2.84217094e-14 C154.524472,2.89929453e-14 167.681818,13.1573461 167.681818,29.3877551 L167.681818,63.6734694 C167.681818,98.8393555 139.174235,127.346939 104.008349,127.346939 L49.318,127.346 L49.3181818,191.020408 L0,191.020408 L0,29.3877551 Z" id="形状结合备份-6" fill="#6200EE" opacity="0.700308866"></path>
            <path d="M49.3181818,112.653061 C49.3181818,77.4871751 77.8257651,48.9795918 112.991651,48.9795918 L167.680832,48.9795918 L167.681818,63.6734694 C167.681818,98.8393555 139.174235,127.346939 104.008349,127.346939 L49.318,127.346 L49.3181818,112.653061 Z" id="形状结合" fill="#3700B3" opacity="0.7"></path>
        </g>
    </g>
</svg>